# xmcd
#
# Track frame offsets:
#	150
#	12487
#	26010
#	41587
#	55865
#	66180
#	81415
#	97062
#	105312
#	123815
#
# Disc length: 1894
#
# Revision: 2
# Processed by: cddbd v1.5.1PL0 Copyright (c) Steve Scherf et al.
# Submitted via: CDex 1.50Beta7
# Normalized: r0:DSETVAR1,TDELIM( - ),TSWAP
#
DISCID=7e07640a
DTITLE=Various Artist - Trucker's Jukebox #2
DYEAR=1995
DGENRE=Country
TTITLE0=Patsy Cline - Crazy
TTITLE1=Loretta Lynn - Coal Miner's Daughter
TTITLE2=Merle Haggard - Dealin' With The Devil
TTITLE3=Conway Twitty and Loretta Lynn - I Still Believe In Waltzes
TTITLE4=Boxcar Willie - Big Freight Train Carry Me Home
TTITLE5=John Conlee - Rose Colored Glasses
TTITLE6=Willie Nelson - Tell It To Jesus
TTITLE7=Porter Wagoner - Sorrow On The Rocks
TTITLE8=Don Williams - I Believe In You
TTITLE9=Steve Wariner - Some Fools Never Learn
EXTD=YEAR: 1995
EXTT0=
EXTT1=
EXTT2=
EXTT3=
EXTT4=
EXTT5=
EXTT6=
EXTT7=
EXTT8=
EXTT9=
PLAYORDER=
